<?xml version="1.0" standalone="no"?>
<!DOCTYPE svg PUBLIC "-//W3C//DTD SVG 20010904//EN"
 "http://www.w3.org/TR/2001/REC-SVG-20010904/DTD/svg10.dtd">
<svg version="1.0" xmlns="http://www.w3.org/2000/svg"
 width="400.000000pt" height="400.000000pt" viewBox="0 0 400.000000 400.000000"
 preserveAspectRatio="xMidYMid meet">

<g transform="translate(0.000000,400.000000) scale(0.100000,-0.100000)"
fill="#000000" stroke="none">
<path d="M233 2908 c-18 -24 -23 -48 -13 -72 24 -63 100 -49 100 19 0 18 -7
41 -16 49 -19 19 -58 21 -71 4z"/>
<path d="M500 2486 c0 -319 1 -334 19 -339 41 -10 42 -1 41 262 -1 252 4 291
35 291 8 0 27 -17 42 -37 15 -21 31 -39 36 -41 4 -2 7 -8 7 -14 0 -5 16 -26
35 -46 19 -20 38 -45 41 -54 3 -10 10 -18 15 -18 5 0 9 -6 9 -14 0 -8 3 -16 8
-18 11 -5 90 -102 105 -129 7 -13 30 -42 50 -63 20 -22 37 -45 37 -51 0 -7 13
-23 29 -38 28 -24 53 -32 92 -29 16 2 129 134 129 151 0 5 16 26 35 47 19 20
45 53 57 73 13 20 36 52 53 71 17 19 48 59 69 89 55 78 97 121 118 121 17 0
18 -15 18 -278 l0 -278 25 -2 25 -2 0 340 0 340 -34 0 c-28 0 -39 -7 -57 -32
-13 -18 -28 -38 -34 -44 -28 -31 -45 -55 -45 -63 0 -4 -10 -16 -21 -27 -12
-10 -39 -45 -61 -76 -21 -32 -47 -66 -57 -75 -10 -10 -38 -47 -64 -83 -25 -36
-57 -77 -71 -92 -15 -15 -26 -31 -26 -37 0 -5 -18 -28 -39 -51 -46 -50 -59
-48 -97 12 -15 24 -42 58 -60 76 -19 18 -34 39 -34 45 0 7 -18 31 -40 52 -22
21 -40 43 -40 47 0 8 -18 32 -59 77 -13 14 -37 46 -54 71 -17 25 -42 57 -56
72 -35 36 -51 56 -51 63 0 3 -12 19 -27 35 -20 23 -35 30 -65 30 l-38 0 0
-334z"/>
<path d="M2223 2760 c-24 -32 -43 -61 -43 -65 0 -4 -22 -38 -50 -75 -27 -37
-50 -70 -50 -74 0 -8 -35 -60 -61 -91 -10 -11 -27 -38 -39 -60 -12 -22 -40
-63 -61 -91 -21 -28 -39 -56 -39 -61 0 -6 -6 -16 -14 -22 -18 -15 -30 -61 -19
-72 18 -18 51 5 77 55 15 29 38 64 50 77 12 13 25 32 29 42 6 16 29 17 297 17
239 0 294 -3 306 -14 8 -8 14 -18 14 -23 1 -4 14 -24 30 -43 17 -19 30 -38 30
-43 0 -23 43 -67 66 -67 32 0 30 16 -6 73 -16 26 -30 50 -30 54 0 3 -14 22
-30 42 -49 57 -50 59 -50 73 0 7 -18 33 -40 58 -22 25 -40 51 -40 58 0 6 -4
12 -10 12 -5 0 -10 7 -10 15 0 8 -4 15 -10 15 -5 0 -10 7 -10 15 0 8 -13 30
-30 48 -16 19 -30 40 -30 46 0 6 -4 11 -10 11 -5 0 -10 6 -10 13 0 6 -21 40
-46 75 -43 57 -50 62 -83 61 -32 0 -41 -6 -78 -59z m125 -27 c9 -21 20 -39 25
-41 4 -2 7 -10 7 -18 0 -8 5 -14 10 -14 6 0 10 -5 10 -11 0 -5 18 -37 40 -69
22 -32 40 -63 40 -67 0 -5 13 -24 30 -43 36 -43 39 -77 8 -85 -13 -3 -117 -4
-233 -3 -210 3 -210 3 -213 26 -2 13 9 37 27 61 17 21 31 45 31 52 0 8 16 34
35 57 19 24 37 52 40 63 4 10 11 19 16 19 5 0 9 4 9 10 0 5 12 30 27 55 36 59
66 61 91 8z"/>
<path d="M2929 2803 c9 -19 89 -94 149 -140 19 -16 58 -49 86 -75 28 -26 61
-57 74 -67 31 -28 28 -56 -10 -83 -18 -12 -51 -41 -73 -63 -23 -22 -65 -60
-94 -85 -100 -84 -141 -122 -141 -131 0 -5 14 -9 30 -9 17 0 30 5 30 10 0 6 5
10 11 10 6 0 28 17 49 38 21 20 45 42 52 47 28 22 174 149 191 167 26 26 44
22 81 -17 19 -19 38 -35 43 -35 9 0 59 -45 164 -145 20 -19 40 -35 43 -35 4 0
16 -9 28 -20 25 -23 68 -27 68 -6 0 8 -14 25 -31 37 -17 12 -51 40 -74 63 -24
23 -60 55 -81 73 -22 17 -59 50 -84 72 -24 23 -47 41 -51 41 -4 0 -11 9 -14
21 -7 21 30 61 145 159 23 19 67 59 98 88 32 28 62 52 68 52 6 0 16 11 22 25
11 24 10 25 -19 25 -21 0 -40 -10 -62 -33 -18 -18 -50 -46 -72 -63 -22 -16
-58 -47 -81 -69 -59 -57 -143 -129 -154 -133 -6 -2 -16 2 -24 10 -8 7 -37 33
-66 58 -28 25 -73 65 -100 90 -112 105 -158 140 -184 140 -22 0 -25 -3 -17
-17z"/>
<path d="M229 2683 c-11 -12 -15 -71 -17 -257 -2 -132 -1 -250 2 -263 13 -48
60 -68 90 -37 14 13 16 53 16 283 0 194 -3 270 -12 279 -17 17 -63 15 -79 -5z"/>
<path d="M565 1869 c-178 -9 -193 -12 -252 -56 l-33 -24 0 -280 c0 -179 4
-279 10 -279 6 0 10 -7 10 -15 0 -8 11 -17 25 -21 14 -3 25 -10 25 -15 0 -5
11 -9 24 -9 14 0 28 -4 31 -10 7 -11 665 -15 665 -4 0 3 -5 14 -10 25 -10 18
-24 19 -320 19 -200 0 -310 4 -310 10 0 6 -7 10 -15 10 -9 0 -27 7 -40 16 -24
16 -25 20 -25 129 0 94 3 114 16 119 9 3 170 6 359 6 353 0 355 0 332 38 -6 9
-89 12 -358 12 l-349 0 0 108 c0 125 -2 122 105 165 63 25 81 28 163 25 90 -3
92 -2 92 20 0 12 -1 21 -2 20 -2 -1 -66 -5 -143 -9z"/>
<path d="M1694 1872 c-6 -4 -26 -32 -46 -62 -19 -31 -41 -62 -49 -70 -8 -8
-23 -32 -34 -54 -11 -21 -30 -48 -42 -60 -13 -11 -23 -24 -23 -28 0 -8 -67
-116 -84 -135 -29 -33 -36 -43 -36 -53 0 -5 -4 -10 -9 -10 -5 0 -11 -10 -15
-23 -3 -13 -17 -36 -31 -51 -14 -15 -25 -29 -25 -31 0 -3 -16 -29 -35 -59 -30
-48 -44 -86 -31 -86 2 0 11 -3 20 -6 18 -7 76 52 76 77 0 10 3 19 8 21 4 2 25
27 46 56 l38 52 318 0 318 0 17 -37 c10 -21 33 -56 52 -79 18 -23 33 -44 33
-48 0 -16 30 -36 54 -36 26 0 48 21 28 28 -7 2 -12 8 -12 14 0 6 -22 40 -48
77 -27 36 -51 73 -54 81 -3 8 -26 43 -52 76 -25 34 -46 65 -46 69 0 4 -22 38
-50 75 -27 37 -50 71 -50 75 0 4 -20 34 -45 67 -25 33 -52 75 -61 94 -28 59
-92 92 -130 66z m80 -92 c14 -22 26 -42 26 -45 0 -3 8 -15 18 -26 11 -10 25
-32 33 -47 8 -15 16 -29 19 -32 3 -3 12 -18 20 -34 8 -17 25 -41 38 -55 12
-13 25 -35 28 -48 4 -13 10 -23 16 -23 5 0 8 -15 6 -32 l-3 -33 -245 0 -245 0
-3 23 c-2 14 5 33 16 45 10 12 30 43 42 70 13 26 27 47 31 47 6 0 63 91 81
130 3 8 20 31 37 50 17 19 31 38 31 43 0 21 30 2 54 -33z"/>
<path d="M2457 1873 c-4 -3 -7 -167 -7 -364 0 -308 2 -358 15 -363 8 -3 22 -3
30 0 13 5 15 47 15 293 0 157 4 292 9 300 8 12 14 13 35 3 14 -6 26 -18 26
-26 0 -8 14 -27 31 -43 17 -15 37 -40 45 -55 7 -14 31 -46 51 -71 61 -71 73
-87 73 -93 0 -2 12 -17 26 -32 14 -15 33 -39 42 -54 9 -16 20 -28 24 -28 4 0
8 -7 8 -15 0 -9 17 -33 38 -54 20 -21 49 -57 63 -78 29 -43 71 -60 112 -44 23
9 57 45 57 59 0 5 12 20 28 35 35 34 52 54 52 65 0 4 23 34 50 67 27 33 50 63
50 68 0 6 11 20 25 33 14 13 25 26 25 29 0 3 11 18 25 33 14 15 31 40 39 57 8
17 25 40 38 52 32 30 48 50 48 61 0 17 39 44 55 39 13 -6 15 -45 15 -301 0
-271 1 -294 18 -298 9 -2 25 -2 35 0 16 3 17 28 17 348 0 219 -4 352 -10 365
-14 26 -54 24 -82 -4 -36 -38 -78 -86 -78 -92 0 -3 -6 -13 -14 -22 -52 -63
-90 -115 -121 -160 -19 -29 -41 -56 -49 -60 -7 -4 -30 -34 -50 -66 -21 -32
-44 -61 -52 -64 -8 -3 -14 -10 -14 -16 0 -9 -53 -83 -100 -139 -15 -19 -70
-25 -70 -8 0 12 0 12 -70 94 -27 33 -50 63 -50 68 0 5 -18 27 -40 49 -22 22
-40 46 -40 54 0 7 -10 22 -23 32 -13 10 -43 45 -67 78 -24 33 -47 62 -52 63
-4 2 -8 8 -8 14 0 6 -11 19 -25 30 -14 11 -25 26 -25 34 0 26 -115 134 -142
134 -13 0 -28 -3 -31 -7z"/>
</g>
</svg>
